<?xml version="1.0" encoding="utf-8"?>
<!-- Generator: Adobe Illustrator 27.0.0, SVG Export Plug-In . SVG Version: 6.00 Build 0)  -->
<svg version="1.1" id="Layer_4" xmlns="http://www.w3.org/2000/svg" xmlns:xlink="http://www.w3.org/1999/xlink" x="0px" y="0px"
	 viewBox="0 0 5221.97 766.82" style="enable-background:new 0 0 5221.97 766.82;" xml:space="preserve">
<g>
	<g>
		<polygon points="4569.42,127.8 4448.33,127.8 4335.15,639.01 4456.25,639.01 		"/>
		<polygon points="5094.17,127.8 4973.07,127.8 4859.9,639.01 4980.99,639.01 		"/>
		<path d="M4690.52,127.8l169.38,511.21H4738.8L4569.42,127.8H4690.52z"/>
	</g>
	<polygon points="1695.3,517.92 1781.67,127.8 1660.58,127.8 1547.4,639.01 2193.24,639.01 2220.04,517.92 	"/>
	<path d="M2357.53,127.8l-113.18,511.21h450.47c107.89,0,214.72-87.47,238.61-195.36l0,0l-94.28-121.09h121.09v0
		c23.81-107.56-44.08-194.75-151.64-194.75H2357.53z M2722.25,517.92h-329.99l16.44-74.27h403.65l-0.13,0.61
		C2803.21,484.94,2762.93,517.92,2722.25,517.92z M2839.16,322.56h-403.65l16.31-73.66h329.99
		C2822.49,248.9,2848.16,281.88,2839.16,322.56L2839.16,322.56z"/>
	<path d="M4284.03,639.01l43.25-195.36L4233,322.56h121.09v0c23.81-107.56-44.08-194.75-151.64-194.75h-451.08L3638.2,639.01h121.09
		l43.25-195.36h403.65l-43.25,195.36H4284.03z M4233,322.56h-403.65l16.31-73.66h329.99C4216.33,248.9,4242.01,281.88,4233,322.56
		L4233,322.56z"/>
	<path d="M3054.42,127.8l-113.18,511.21h645.83l113.18-511.21H3054.42z M3492.79,517.92h-403.65l59.56-269.02h403.65L3492.79,517.92
		z"/>
	<polygon points="1273.7,127.8 1139.76,127.8 824.76,639.01 945.85,639.01 1273.7,127.8 1407.63,127.8 1496.28,639.01 
		1375.19,639.01 	"/>
	<polygon points="765.72,127.8 722.54,322.86 318.89,322.86 362.07,127.8 240.98,127.8 127.8,639.01 248.9,639.01 318.89,322.86 
		413.17,443.96 695.73,443.96 652.54,639.01 773.64,639.01 886.81,127.8 	"/>
</g>
</svg>
